<?xml version="1.0" standalone="no"?>
<!DOCTYPE svg PUBLIC "-//W3C//DTD SVG 1.1//EN" "http://www.w3.org/Graphics/SVG/1.1/DTD/svg11.dtd" >
<svg xmlns="http://www.w3.org/2000/svg" xmlns:xlink="http://www.w3.org/1999/xlink" version="1.1">
<metadata>
Created by FontForge 20161003 at Thu Nov 16 04:57:16 2017
 By www-data
</metadata>
<defs>
<font id="Nurkholis" horiz-adv-x="320" >
  <font-face 
    font-family="Nurkholis"
    font-weight="400"
    font-stretch="normal"
    units-per-em="1000"
    panose-1="2 0 5 6 0 0 0 2 0 4"
    ascent="800"
    descent="-200"
    x-height="526"
    cap-height="619"
    bbox="-40 -51 672 801"
    underline-thickness="50"
    underline-position="-150"
    unicode-range="U+0020-FB00"
  />
<missing-glyph horiz-adv-x="357" 
 />
    <glyph glyph-name="f_f" unicode="ff" horiz-adv-x="381" 
d="M252 367h162v-55h-162v-282h-56v282h-112v-363h-56v363h-55l-1 55h54v148q0 27 4.5 53t17 47t34 34t55.5 14q20 1 35.5 -4t27.5 -13q9 35 33 60t72 27q26 1 45 -7t32 -21.5t20.5 -31.5t12.5 -38l-53 -12q-5 20 -15.5 34.5t-30.5 19.5q-20 4 -32.5 -3t-20 -20.5t-10.5 -32
t-3 -36.5t-0.5 -30t0.5 -29zM84 367h110v174q0 28 -13 44.5t-33 21.5q-20 4 -32.5 -3t-20 -20.5t-10.5 -32t-3 -36.5t-0.5 -30t0.5 -29z" />
    <glyph glyph-name="F_F" unicode="FF" horiz-adv-x="361" 
d="M252 367h162v-55h-162v-282h-56v282h-112v-363h-56v363h-55l-1 55h54v148q0 27 4.5 53t17 47t34 34t55.5 14q20 1 35.5 -4t27.5 -13q9 35 33 60t72 27q26 1 45 -7t32 -21.5t20.5 -31.5t12.5 -38l-53 -12q-5 20 -15.5 34.5t-30.5 19.5q-20 4 -32.5 -3t-20 -20.5t-10.5 -32
t-3 -36.5t-0.5 -30t0.5 -29zM84 367h110v174q0 28 -13 44.5t-33 21.5q-20 4 -32.5 -3t-20 -20.5t-10.5 -32t-3 -36.5t-0.5 -30t0.5 -29z" />
    <glyph glyph-name="e_e" unicode="ee" horiz-adv-x="690" 
d="M-35 367h42q0 42 12.5 70.5t32 45.5t43.5 21.5t46.5 -2t40.5 -24t26 -44.5q9 -32 3.5 -55t-19.5 -38t-33.5 -22t-37.5 -7h-53q11 -35 37 -54t54.5 -19.5t54 18.5t35.5 60q4 14 5 26t1 24h97q0 42 12.5 70.5t32 45.5t43.5 21.5t46.5 -2t40.5 -24t26 -44.5q9 -32 3.5 -55
t-19.5 -38t-33.5 -22t-37.5 -7h-53q11 -35 37 -54t54.5 -19.5t54 18.5t35.5 60q4 14 5 26t1 24h72v-55h-23q-7 -37 -24.5 -68.5t-54.5 -46.5q-38 -15 -72.5 -13.5t-63 17t-49 44t-28.5 67.5h-53q-7 -37 -24.5 -68.5t-54.5 -46.5q-38 -15 -72.5 -13.5t-63 17t-49 44
t-28.5 67.5h-48zM61 367h23q13 0 29.5 1t29.5 6.5t17 17.5t-9 35q-10 17 -25 22.5t-29 -2t-24.5 -27.5t-11.5 -53zM406 367h23q13 0 29.5 1t29.5 6.5t17 17.5t-9 35q-10 17 -25 22.5t-29 -2t-24.5 -27.5t-11.5 -53zM29 560l35 35l36 -35l-36 -35zM115 560l36 35l35 -35
l-35 -35z" />
    <glyph glyph-name=".notdef" horiz-adv-x="357" 
 />
    <glyph glyph-name=".null" horiz-adv-x="0" 
 />
    <glyph glyph-name="nonmarkingreturn" horiz-adv-x="333" 
 />
    <glyph glyph-name="space" unicode=" " horiz-adv-x="205" 
 />
    <glyph glyph-name="exclam" unicode="!" horiz-adv-x="134" 
d="M36 395v339h56v-339h-56zM22 328l43 43l43 -43l-43 -43l-43 43v0z" />
    <glyph glyph-name="comma" unicode="," horiz-adv-x="156" 
d="M18 328l49 49l48 -49l-48 -49z" />
    <glyph glyph-name="period" unicode="." horiz-adv-x="156" 
d="M18 328l49 49l48 -49l-48 -49z" />
    <glyph glyph-name="zero" unicode="0" horiz-adv-x="282" 
d="M221 396q0 -14 3.5 -21.5t20.5 -7.5h23v-55h-303l-1 55h26q14 0 19 6.5t5 26.5v234q0 33 15 56t38 34t49 11.5t49 -10.5t38 -34t15 -57zM69 401q0 -21 5.5 -27.5t22.5 -6.5h42q10 0 17 7.5t7 24.5v234q0 25 -14.5 37t-32.5 12.5t-32.5 -10t-14.5 -31.5v-240z" />
    <glyph glyph-name="one" unicode="1" horiz-adv-x="130" 
d="M123 312h-158l-1 55h51v367h56v-367h50z" />
    <glyph glyph-name="two" unicode="2" horiz-adv-x="267" 
d="M247 312h-282l-1 55h73l106 226q8 16 13 34t2.5 33t-15 24.5t-37.5 9.5q-20 0 -36 -12.5t-18 -42.5l-55 -1q3 30 13.5 51t26.5 34.5t35 20t39 6.5q32 0 57.5 -13.5t39 -36.5t13 -53t-19.5 -64l-102 -216h146z" />
    <glyph glyph-name="three" unicode="3" horiz-adv-x="248" 
d="M236 312h-271l-1 55h32h63q42 0 62.5 20.5t20.5 44.5q1 24 -16.5 43.5t-52.5 20.5h-40v57h38q28 0 49.5 16.5t21.5 47.5q0 23 -18.5 41t-52.5 18h-76l-1 58h41h28q27 0 51.5 -7.5t42.5 -22t28 -36.5t9 -52q-1 -31 -16 -51t-36 -34q30 -17 42 -45t12 -60q0 -18 -7 -34.5
t-18 -24.5h60z" />
    <glyph glyph-name="four" unicode="4" horiz-adv-x="300" 
d="M285 312h-320l-1 55h213v97h-72q-56 0 -75 23.5t-19 62.5v184h55v-171q0 -27 7 -35t32 -8h72v214h56v-367h50z" />
    <glyph glyph-name="five" unicode="5" horiz-adv-x="298" 
d="M283 312h-318l-1 55h167q27 0 35 7.5t8 31.5v68q0 21 -5.5 32t-22.5 13h-59q-40 0 -63 19.5t-23 75.5v20q0 50 15.5 75t59.5 25h145v-56h-121q-26 0 -34.5 -10t-8.5 -36v-18q0 -25 8 -32t34 -7h37q29 0 47 -3.5t28.5 -13.5t14 -29.5t3.5 -52.5v-70q0 -24 -4 -39h56z" />
    <glyph glyph-name="six" unicode="6" horiz-adv-x="295" 
d="M280 312h-315l-1 55h42v281q0 20 4.5 36t15 27t28.5 17t46 6h43q50 0 75 -15.5t25 -59.5v-44h-56v20q0 26 -10.5 34.5t-36.5 8.5h-40q-24 0 -31 -7.5t-7 -34.5v-81q13 4 38 4h43q50 0 75 -15.5t25 -59.5v-117h35zM187 367v94q0 26 -10.5 34t-36.5 8h-40q-24 0 -31 -7.5
t-7 -34.5v-94h125z" />
    <glyph glyph-name="seven" unicode="7" horiz-adv-x="299" 
d="M-35 312l-1 55h215v269q0 27 -7 34.5t-32 7.5h-40q-26 0 -36.5 -8.5t-10.5 -34.5v-20h-55v44q0 44 25 59.5t75 15.5h42q56 0 75 -23t19 -63v-281h48v-55h-317z" />
    <glyph glyph-name="eight" unicode="8" horiz-adv-x="299" 
d="M284 312h-319l-1 55h65q-11 8 -18 24.5t-7 34.5q0 32 12 60t41 45q-20 14 -35 34t-16 51q-1 30 9 52.5t27.5 37t40 21.5t45.5 6q22 0 44 -7.5t38.5 -22.5t26 -36.5t8.5 -50.5q-1 -31 -16 -51t-35 -34q29 -17 41 -45t12 -60q0 -18 -7 -34.5t-18 -24.5h60zM192 622
q0 29 -20.5 46t-44.5 18q-26 0 -46.5 -17.5t-20.5 -46.5t20 -45t46 -18q26 2 46 18t20 45zM126 496q-33 -2 -50 -21.5t-17 -42.5q0 -20 10 -33.5t25 -20.5t32 -7t31.5 7t24.5 20.5t10 33.5q0 23 -17 42.5t-49 21.5z" />
    <glyph glyph-name="nine" unicode="9" horiz-adv-x="303" 
d="M288 312h-323l-1 55h39q-1 5 -1.5 10t-0.5 10v44h56v-21q0 -26 10 -34.5t36 -8.5h40q25 0 32 8t7 35v81q-15 -4 -39 -4h-42q-51 0 -75.5 15t-24.5 60v116q0 29 11 42.5t39 13.5h142q24 0 34.5 -13.5t10.5 -42.5v-281q0 -15 -3 -30h51zM87 682q-12 0 -21 -4.5t-9 -27.5
v-68q0 -26 10 -34t36 -8h40q25 0 32 7.5t7 34.5v68q0 21 -4.5 26.5t-23.5 5.5h-67z" />
    <glyph glyph-name="question" unicode="?" horiz-adv-x="253" 
d="M97 395v81v53v3h50q24 0 31 8t7 35v61q0 27 -7 34.5t-31 7.5h-40q-26 0 -36.5 -8.5t-10.5 -34.5v-20h-56v44q0 44 25 59.5t75 15.5h43q55 0 74.5 -23t19.5 -63v-86q0 -38 -18 -61t-71 -25v-81h-55zM83 328l43 43l43 -43l-43 -43z" />
    <glyph glyph-name="A" unicode="A" horiz-adv-x="350" 
d="M333 312h-368l-1 55h68q-12 22 -11 45q1 26 15 52t43.5 47t76.5 34.5t115 13.5v-164q0 -18 4 -23t21 -5h35zM215 367v140q-24 0 -48 -7.5t-42.5 -21.5t-30 -34t-11.5 -44q1 -24 13.5 -28.5t28.5 -4.5h90z" />
    <glyph glyph-name="B" unicode="B" horiz-adv-x="397" 
d="M71 801v-408q13 20 30.5 45.5t38 49.5t42.5 43.5t44.5 27t44 0.5t40.5 -36q12 -18 17.5 -40t4.5 -43t-10 -40.5t-25 -32.5h80v-55h-413l-1 55h49v434h58zM117 367q22 -2 48 -3.5t49 4t40 21.5t21 48q3 31 -13 56q-11 17 -29.5 8t-39.5 -31t-41 -51t-35 -52z" />
    <glyph glyph-name="C" unicode="C" horiz-adv-x="283" 
d="M-35 367h64q-16 19 -21.5 39.5t-4.5 41.5q1 30 15 51t35 34.5t47 19.5t50 6h49v-56h-49q-48 0 -68.5 -17.5t-22.5 -37.5q-2 -14 4 -28t17.5 -25.5t29 -19t38.5 -7.5l120 -1v-55h-304z" />
    <glyph glyph-name="D" unicode="D" horiz-adv-x="397" 
d="M272 801h56v-434h50v-55h-413l-1 55h78q-16 13 -24.5 32.5t-10 40.5t4.5 43t18 40q19 29 40.5 36t43.5 -0.5t44.5 -27t43 -43.5t38 -49.5t30.5 -45.5zM221 367q-15 23 -35 52t-41 51t-39.5 31t-29.5 -8q-17 -26 -12 -56q4 -32 21 -48t40 -21.5t49 -4t47 3.5z" />
    <glyph glyph-name="E" unicode="E" horiz-adv-x="345" 
d="M-35 367h42q0 42 12.5 70.5t32 45.5t43.5 21.5t46.5 -2t40.5 -24t26 -44.5q9 -32 3.5 -55t-19.5 -38t-33.5 -22t-37.5 -7h-53q11 -35 37 -54t54.5 -19.5t54 18.5t35.5 60q4 14 5 26t1 24h72v-55h-23q-7 -37 -24.5 -68.5t-54.5 -46.5q-38 -15 -72.5 -13.5t-63 17t-49 44
t-28.5 67.5h-48zM29 560l35 35l36 -35l-36 -35zM115 560l36 35l35 -35l-35 -35zM61 367h23q13 0 29.5 1t29.5 6.5t17 17.5t-9 35q-10 17 -25 22.5t-29 -2t-24.5 -27.5t-11.5 -53z" />
    <glyph glyph-name="F" unicode="F" horiz-adv-x="215" 
d="M71 367h162v-55h-162v-282h-56v282h-50l-1 55h49v218q0 27 4.5 53t17 47t34 34t55.5 14q26 1 45 -7t32 -21.5t20.5 -31.5t12.5 -38l-53 -12q-5 20 -15.5 34.5t-30.5 19.5q-20 4 -32.5 -3t-20 -20.5t-10.5 -32t-3 -36.5t-0.5 -30t0.5 -29z" />
    <glyph glyph-name="G" unicode="G" 
d="M-35 367h77q-21 10 -31 32.5t-8 48.5q1 21 8.5 41.5t22 37t34.5 27.5t47 11q22 0 42.5 -8t37 -26.5t26 -47.5t9.5 -70v-46h73v-55h-74v-58.5t-0.5 -40t-0.5 -34v-41.5q-3 -45 -31 -74.5t-73 -30.5q-19 -1 -37.5 5t-34 18t-26.5 30.5t-15 43.5l54 11q2 -27 19 -40.5
t37 -12.5t36 15.5t16 45.5v81.5t1 81.5h-210zM173 367v23.5t1 22.5q0 29 -5.5 48t-14.5 30t-20.5 15t-22.5 3q-26 -2 -39.5 -20t-15.5 -41q-2 -30 8 -47t27 -25t38.5 -9.5t43.5 0.5zM83 620l35 36l35 -36l-35 -35z" />
    <glyph glyph-name="H" unicode="H" horiz-adv-x="319" 
d="M71 801v-263q20 17 47 21t60 -8q28 -11 44.5 -30.5t24 -44.5t9 -53.5t0.5 -55.5h47v-55h-49v-2v-123h-56v246q0 35 -20 53.5t-43.5 18t-43.5 -21t-20 -62.5v-109h-110l-1 55h53v71v363h58z" />
    <glyph glyph-name="I" unicode="I" horiz-adv-x="164" 
d="M-35 367h56q-3 15 -3 30v129h56v-116q0 -27 7 -35t32 -8h42v-55h-191zM10 584l35 35l36 -35l-36 -36z" />
    <glyph glyph-name="J" unicode="J" horiz-adv-x="336" 
d="M182 734h56v-367h81v-55h-82q-2 -28 -10 -51.5t-22 -40t-36 -25.5t-53 -8q-29 1 -48 11.5t-30.5 27t-17 39t-7.5 47.5h-48l-1 55h103v-35t3.5 -38.5t13 -32.5t29.5 -18t33 3t20.5 21t10.5 32t3 37v58v340h2z" />
    <glyph glyph-name="K" unicode="K" horiz-adv-x="357" 
d="M72 367q17 0 24.5 9t10.5 23t4 32.5t4 37t11 36.5t26 31q17 12 34 17.5t38 5.5h32v-56h-33q-23 0 -39 -15.5t-13 -38.5q1 -15 10.5 -29.5t23.5 -26t30.5 -18.5t31.5 -8h69v-55h-47q-51 0 -82 22t-51 55q0 -15 -7 -29t-17.5 -24.5t-23.5 -17t-25 -6.5h-118l-1 55h49v434
h56v-433l1 -1h2z" />
    <glyph glyph-name="L" unicode="L" horiz-adv-x="179" 
d="M87 801v-377q0 -20 1.5 -31t7 -17t16 -7.5t29.5 -1.5h29v-55h-83h-25h-97l-1 55h66v434h57z" />
    <glyph glyph-name="M" unicode="M" horiz-adv-x="506" 
d="M15 559h56v-58q14 21 44 33.5t63 0.5q20 -8 33.5 -19.5t22.5 -25.5q14 20 34 35t51 16q29 1 51 -9t36.5 -28t22 -42.5t7.5 -51.5v-43h45v-55h-45h-2v-125h-55v125v104q0 34 -18.5 53t-41.5 19q-30 0 -46.5 -22t-16.5 -50v-134h-58v136q-1 35 -21 52.5t-43.5 17t-43 -21
t-19.5 -61.5v-93h-106l-1 55h49v55zM129 600l36 35l35 -35l-35 -36zM251 600l36 35l35 -35l-35 -36zM192 659l35 36l36 -36l-36 -35z" />
    <glyph glyph-name="N" unicode="N" horiz-adv-x="319" 
d="M15 559h56v-34q14 20 44 29t63 -3q28 -11 44.5 -30.5t24 -44.5t9 -53.5t0.5 -55.5h47v-55h-49v-2v-123h-56v246q0 35 -20 53.5t-43.5 18t-43.5 -21t-20 -62.5v-109h-106l-1 55h49v71z" />
    <glyph glyph-name="O" unicode="O" horiz-adv-x="321" 
d="M217 347q0 17 -7 34.5t-18.5 33.5t-26 28.5t-29.5 20.5q-14 -9 -28 -21.5t-25.5 -28t-18.5 -33t-7 -34.5q0 -33 21 -54.5t58 -21.5q32 0 56.5 20.5t24.5 55.5zM145 559l35 35l35 -35l-35 -35zM58 559l36 35l35 -35l-35 -35zM272 367h33v-55h-35q-7 -38 -34 -63
q-18 -17 -43 -25t-57 -9q-61 -2 -98 34q-26 23 -34 63h-39l-1 55h36q6 40 33 75q20 26 46 45t55 33q124 -61 136 -153h2z" />
    <glyph glyph-name="P" unicode="P" 
d="M304 367v-55h-210h-1q0 -22 0.5 -60.5t0.5 -80.5v-80.5v-60.5h-55q0 24 -0.5 57.5t-0.5 71.5t-0.5 77.5t-0.5 75.5h-72l-1 55h71v46q-1 41 9 70t26 47.5t37 26.5t43 8q27 0 47 -11t34.5 -27.5t22 -37t8.5 -41.5q1 -26 -8.5 -48.5t-30.5 -32.5h81zM91 367q22 -2 43.5 -0.5
t38 9.5t26.5 25t8 47q-1 23 -14.5 41t-39.5 20q-11 1 -22.5 -3t-20.5 -15t-14.5 -30t-5.5 -48q0 -11 0.5 -22.5t0.5 -23.5z" />
    <glyph glyph-name="Q" unicode="Q" 
d="M-35 367h77q-21 10 -31 32.5t-8 48.5q1 21 8.5 41.5t22 37t34.5 27.5t47 11q22 0 42.5 -8t37 -26.5t26 -47.5t9.5 -70v-46h73v-55h-74v-75.5t-0.5 -77.5t-0.5 -71.5v-57.5h-55v60.5v80.5t0.5 80.5t0.5 60.5h-1h-209zM173 367v23.5t1 22.5q0 29 -5.5 48t-14.5 30t-20.5 15
t-22.5 3q-26 -2 -39.5 -20t-15.5 -41q-2 -30 8 -47t27 -25t38.5 -9.5t43.5 0.5zM115 620l35 36l35 -36l-35 -35zM28 620l36 36l35 -36l-35 -35z" />
    <glyph glyph-name="R" unicode="R" horiz-adv-x="286" 
d="M13 559h56v-46h79q26 0 36 8.5t10 34.5v25h56v-48q0 -44 -25 -59.5t-75 -15.5h-81v-91h203v-55h-307l-1 55h27q15 0 18.5 7t3.5 28v157z" />
    <glyph glyph-name="S" unicode="S" horiz-adv-x="393" 
d="M-2 482l12.5 9.5t33.5 24.5t48 34.5t55 40.5l150 110l30 -40q-35 -25 -58 -42t-44.5 -32.5t-45 -32.5t-57.5 -42q-5 -5 -14.5 -10t-17.5 -7h129q49 -2 76 -20.5t27 -67.5q0 -12 -4.5 -24t-15.5 -19q18 3 28 3h42v-55h-409l-1 55h200q18 0 36.5 0.5t33 4t24 11.5t9.5 24
q0 12 -5 19t-13 11t-18.5 5t-21.5 1h-183z" />
    <glyph glyph-name="T" unicode="T" horiz-adv-x="304" 
d="M-35 367h100v86.5v97t0.5 97t0.5 86.5h55v-174l103 -1v-56l-103 1l-1 -145v-29q2 -26 11 -48t34 -22q17 0 27 8t14.5 21t5.5 27.5t1 28.5v22h75v-55h-23q-2 -22 -7.5 -41t-16.5 -33.5t-29.5 -23t-46.5 -8.5q-26 0 -44 9t-29.5 23.5t-17.5 33.5t-8 40h-1h-101z" />
    <glyph glyph-name="U" unicode="U" horiz-adv-x="415" 
d="M-35 367h56q-3 15 -3 30v129h56v-116q0 -27 7 -35t32 -8h134q26 0 36.5 8.5t10.5 34.5v116h55v-139v-10t-1 -10h46v-55h-430zM194 246l36 36l35 -36l-35 -35zM108 246l35 36l36 -36l-36 -35z" />
    <glyph glyph-name="V" unicode="V" horiz-adv-x="284" 
d="M12 559h55v-192q30 7 49.5 25t31.5 43.5t17 57.5t7 66h56q0 -69 -17.5 -119t-57.5 -73h117v-55h-305l-1 55h26q14 0 18 7t4 28v157z" />
    <glyph glyph-name="W" unicode="W" horiz-adv-x="488" 
d="M-35 367h56q-3 15 -3 30v162h56v-149q0 -27 7 -35t32 -8h46q23 0 27.5 5.5t4.5 25.5v144h55v-145q0 -11 1 -17t4 -9t9.5 -3.5t17.5 -0.5h38q26 0 36.5 8.5t10.5 34.5v116h55v-139v-10t-1 -10h46v-55h-205q-10 0 -23.5 4t-18.5 13q-5 -10 -15 -13.5t-19 -3.5h-218z
M185 659l35 36l35 -36l-35 -35zM244 600l35 35l36 -35l-36 -36zM122 600l35 35l36 -35l-36 -36z" />
    <glyph glyph-name="X" unicode="X" horiz-adv-x="330" 
d="M-35 367h36q26 0 51 12t45 27q-18 19 -29 36.5t-18 35.5t-11.5 38t-7.5 44h56q9 -65 51 -115q40 50 51 115h55q-3 -24 -7.5 -44t-11.5 -38t-18 -35.5t-28 -36.5q20 -14 45.5 -26.5t50.5 -12.5h38v-55h-43q-43 0 -74 18t-58 39q-26 -20 -54 -38.5t-68 -18.5h-52z" />
    <glyph glyph-name="Y" unicode="Y" horiz-adv-x="381" 
d="M-35 367h56q-3 15 -3 30v162h56v-149q0 -27 7 -35t32 -8h101q26 0 36.5 8.5t10.5 34.5v116h55v-159h45v-55h-45v-163q0 -29 -9 -50.5t-23.5 -36t-33 -22t-38.5 -7.5q-19 -1 -38 5t-34.5 18t-26.5 30.5t-14 43.5l54 11q2 -27 19 -40.5t37 -12.5t36 15.5t16 45.5v163h-297z
M134 559l36 35l35 -35l-35 -35z" />
    <glyph glyph-name="Z" unicode="Z" horiz-adv-x="354" 
d="M337 312h-372l-1 55h62q0 33 13 53.5t33 33t45 19t48 11.5q30 7 47 14.5t21 24.5h-204v50h266q0 -38 -4.5 -62.5t-17 -39.5t-35 -24t-59.5 -15q-19 -3 -36 -7t-29.5 -10.5t-20 -18t-7.5 -29.5h249z" />
    <glyph glyph-name="a" unicode="a" horiz-adv-x="350" 
d="M333 312h-368l-1 55h68q-12 22 -11 45q1 26 15 52t43.5 47t76.5 34.5t115 13.5v-164q0 -18 4 -23t21 -5h35zM215 367v140q-24 0 -48 -7.5t-42.5 -21.5t-30 -34t-11.5 -44q1 -24 13.5 -28.5t28.5 -4.5h90z" />
    <glyph glyph-name="b" unicode="b" horiz-adv-x="397" 
d="M71 801v-408q13 20 30.5 45.5t38 49.5t42.5 43.5t44.5 27t44 0.5t40.5 -36q12 -18 17.5 -40t4.5 -43t-10 -40.5t-25 -32.5h80v-55h-413l-1 55h49v434h58zM117 367q22 -2 48 -3.5t49 4t40 21.5t21 48q3 31 -13 56q-11 17 -29.5 8t-39.5 -31t-41 -51t-35 -52z" />
    <glyph glyph-name="c" unicode="c" horiz-adv-x="283" 
d="M-35 367h64q-16 19 -21.5 39.5t-4.5 41.5q1 30 15 51t35 34.5t47 19.5t50 6h49v-56h-49q-48 0 -68.5 -17.5t-22.5 -37.5q-2 -14 4 -28t17.5 -25.5t29 -19t38.5 -7.5l120 -1v-55h-304z" />
    <glyph glyph-name="d" unicode="d" horiz-adv-x="397" 
d="M272 801h56v-434h50v-55h-413l-1 55h78q-16 13 -24.5 32.5t-10 40.5t4.5 43t18 40q19 29 40.5 36t43.5 -0.5t44.5 -27t43 -43.5t38 -49.5t30.5 -45.5zM221 367q-15 23 -35 52t-41 51t-39.5 31t-29.5 -8q-17 -26 -12 -56q4 -32 21 -48t40 -21.5t49 -4t47 3.5z" />
    <glyph glyph-name="e" unicode="e" horiz-adv-x="345" 
d="M-35 367h42q0 42 12.5 70.5t32 45.5t43.5 21.5t46.5 -2t40.5 -24t26 -44.5q9 -32 3.5 -55t-19.5 -38t-33.5 -22t-37.5 -7h-53q11 -35 37 -54t54.5 -19.5t54 18.5t35.5 60q4 14 5 26t1 24h72v-55h-23q-7 -37 -24.5 -68.5t-54.5 -46.5q-38 -15 -72.5 -13.5t-63 17t-49 44
t-28.5 67.5h-48zM29 560l35 35l36 -35l-36 -35zM115 560l36 35l35 -35l-35 -35zM61 367h23q13 0 29.5 1t29.5 6.5t17 17.5t-9 35q-10 17 -25 22.5t-29 -2t-24.5 -27.5t-11.5 -53z" />
    <glyph glyph-name="f" unicode="f" horiz-adv-x="215" 
d="M71 367h162v-55h-162v-282h-56v282h-50l-1 55h49v218q0 27 4.5 53t17 47t34 34t55.5 14q26 1 45 -7t32 -21.5t20.5 -31.5t12.5 -38l-53 -12q-5 20 -15.5 34.5t-30.5 19.5q-20 4 -32.5 -3t-20 -20.5t-10.5 -32t-3 -36.5t-0.5 -30t0.5 -29z" />
    <glyph glyph-name="g" unicode="g" 
d="M-35 367h77q-21 10 -31 32.5t-8 48.5q1 21 8.5 41.5t22 37t34.5 27.5t47 11q22 0 42.5 -8t37 -26.5t26 -47.5t9.5 -70v-46h73v-55h-74v-58.5t-0.5 -40t-0.5 -34v-41.5q-3 -45 -31 -74.5t-73 -30.5q-19 -1 -37.5 5t-34 18t-26.5 30.5t-15 43.5l54 11q2 -27 19 -40.5
t37 -12.5t36 15.5t16 45.5v81.5t1 81.5h-210zM173 367v23.5t1 22.5q0 29 -5.5 48t-14.5 30t-20.5 15t-22.5 3q-26 -2 -39.5 -20t-15.5 -41q-2 -30 8 -47t27 -25t38.5 -9.5t43.5 0.5zM83 620l35 36l35 -36l-35 -35z" />
    <glyph glyph-name="h" unicode="h" horiz-adv-x="319" 
d="M71 801v-263q20 17 47 21t60 -8q28 -11 44.5 -30.5t24 -44.5t9 -53.5t0.5 -55.5h47v-55h-49v-2v-123h-56v246q0 35 -20 53.5t-43.5 18t-43.5 -21t-20 -62.5v-109h-110l-1 55h53v71v363h58z" />
    <glyph glyph-name="i" unicode="i" horiz-adv-x="164" 
d="M-35 367h56q-3 15 -3 30v129h56v-116q0 -27 7 -35t32 -8h42v-55h-191zM10 584l35 35l36 -35l-36 -36z" />
    <glyph glyph-name="j" unicode="j" horiz-adv-x="336" 
d="M182 734h56v-367h81v-55h-82q-2 -28 -10 -51.5t-22 -40t-36 -25.5t-53 -8q-29 1 -48 11.5t-30.5 27t-17 39t-7.5 47.5h-48l-1 55h103v-35t3.5 -38.5t13 -32.5t29.5 -18t33 3t20.5 21t10.5 32t3 37v58v340h2z" />
    <glyph glyph-name="k" unicode="k" horiz-adv-x="357" 
d="M72 367q17 0 24.5 9t10.5 23t4 32.5t4 37t11 36.5t26 31q17 12 34 17.5t38 5.5h32v-56h-33q-23 0 -39 -15.5t-13 -38.5q1 -15 10.5 -29.5t23.5 -26t30.5 -18.5t31.5 -8h64v-55h-42q-51 0 -82 22t-51 55q0 -15 -7 -29t-17.5 -24.5t-23.5 -17t-25 -6.5h-118l-1 55h49v434
h56v-433l1 -1h2z" />
    <glyph glyph-name="l" unicode="l" horiz-adv-x="179" 
d="M87 801v-377q0 -20 1.5 -31t7 -17t16 -7.5t29.5 -1.5h29v-55h-83h-25h-97l-1 55h66v434h57z" />
    <glyph glyph-name="m" unicode="m" horiz-adv-x="506" 
d="M15 559h56v-58q14 21 44 33.5t63 0.5q20 -8 33.5 -19.5t22.5 -25.5q14 20 34 35t51 16q29 1 51 -9t36.5 -28t22 -42.5t7.5 -51.5v-43h45v-55h-45h-2v-125h-55v125v104q0 34 -18.5 53t-41.5 19q-30 0 -46.5 -22t-16.5 -50v-134h-58v136q-1 35 -21 52.5t-43.5 17t-43 -21
t-19.5 -61.5v-93h-106l-1 55h49v55zM129 600l36 35l35 -35l-35 -36zM251 600l36 35l35 -35l-35 -36zM192 659l35 36l36 -36l-36 -35z" />
    <glyph glyph-name="n" unicode="n" horiz-adv-x="319" 
d="M15 559h56v-34q14 20 44 29t63 -3q28 -11 44.5 -30.5t24 -44.5t9 -53.5t0.5 -55.5h47v-55h-49v-2v-123h-56v246q0 35 -20 53.5t-43.5 18t-43.5 -21t-20 -62.5v-109h-106l-1 55h49v71z" />
    <glyph glyph-name="o" unicode="o" horiz-adv-x="321" 
d="M217 347q0 17 -7 34.5t-18.5 33.5t-26 28.5t-29.5 20.5q-14 -9 -28 -21.5t-25.5 -28t-18.5 -33t-7 -34.5q0 -33 21 -54.5t58 -21.5q32 0 56.5 20.5t24.5 55.5zM145 559l35 35l35 -35l-35 -35zM58 559l36 35l35 -35l-35 -35zM272 367h33v-55h-35q-7 -38 -34 -63
q-18 -17 -43 -25t-57 -9q-61 -2 -98 34q-26 23 -34 63h-39l-1 55h36q6 40 33 75q20 26 46 45t55 33q124 -61 136 -153h2z" />
    <glyph glyph-name="p" unicode="p" 
d="M304 367v-55h-210h-1q0 -22 0.5 -60.5t0.5 -80.5v-80.5v-60.5h-55q0 24 -0.5 57.5t-0.5 71.5t-0.5 77.5t-0.5 75.5h-72l-1 55h71v46q-1 41 9 70t26 47.5t37 26.5t43 8q27 0 47 -11t34.5 -27.5t22 -37t8.5 -41.5q1 -26 -8.5 -48.5t-30.5 -32.5h81zM91 367q22 -2 43.5 -0.5
t38 9.5t26.5 25t8 47q-1 23 -14.5 41t-39.5 20q-11 1 -22.5 -3t-20.5 -15t-14.5 -30t-5.5 -48q0 -11 0.5 -22.5t0.5 -23.5z" />
    <glyph glyph-name="q" unicode="q" 
d="M-35 367h77q-21 10 -31 32.5t-8 48.5q1 21 8.5 41.5t22 37t34.5 27.5t47 11q22 0 42.5 -8t37 -26.5t26 -47.5t9.5 -70v-46h73v-55h-74v-75.5t-0.5 -77.5t-0.5 -71.5v-57.5h-55v60.5v80.5t0.5 80.5t0.5 60.5h-1h-209zM173 367v23.5t1 22.5q0 29 -5.5 48t-14.5 30t-20.5 15
t-22.5 3q-26 -2 -39.5 -20t-15.5 -41q-2 -30 8 -47t27 -25t38.5 -9.5t43.5 0.5zM115 620l35 36l35 -36l-35 -35zM28 620l36 36l35 -36l-35 -35z" />
    <glyph glyph-name="r" unicode="r" horiz-adv-x="286" 
d="M13 559h56v-46h79q26 0 36 8.5t10 34.5v25h56v-48q0 -44 -25 -59.5t-75 -15.5h-81v-91h203v-55h-307l-1 55h27q15 0 18.5 7t3.5 28v157z" />
    <glyph glyph-name="s" unicode="s" horiz-adv-x="393" 
d="M-2 482l12.5 9.5t33.5 24.5t48 34.5t55 40.5l150 110l30 -40q-35 -25 -58 -42t-44.5 -32.5t-45 -32.5t-57.5 -42q-5 -5 -14.5 -10t-17.5 -7h129q49 -2 76 -20.5t27 -67.5q0 -12 -4.5 -24t-15.5 -19q18 3 28 3h42v-55h-409l-1 55h200q18 0 36.5 0.5t33 4t24 11.5t9.5 24
q0 12 -5 19t-13 11t-18.5 5t-21.5 1h-183z" />
    <glyph glyph-name="t" unicode="t" horiz-adv-x="304" 
d="M-35 367h100v86.5v97t0.5 97t0.5 86.5h55v-174l103 -1v-56l-103 1l-1 -145v-29q2 -26 11 -48t34 -22q17 0 27 8t14.5 21t5.5 27.5t1 28.5v22h75v-55h-23q-2 -22 -7.5 -41t-16.5 -33.5t-29.5 -23t-46.5 -8.5q-26 0 -44 9t-29.5 23.5t-17.5 33.5t-8 40h-1h-101z" />
    <glyph glyph-name="u" unicode="u" horiz-adv-x="415" 
d="M-35 367h56q-3 15 -3 30v129h56v-116q0 -27 7 -35t32 -8h134q26 0 36.5 8.5t10.5 34.5v116h55v-139v-10t-1 -10h46v-55h-430zM194 246l36 36l35 -36l-35 -35zM108 246l35 36l36 -36l-36 -35z" />
    <glyph glyph-name="v" unicode="v" horiz-adv-x="284" 
d="M12 559h55v-192q30 7 49.5 25t31.5 43.5t17 57.5t7 66h56q0 -69 -17.5 -119t-57.5 -73h117v-55h-305l-1 55h26q14 0 18 7t4 28v157z" />
    <glyph glyph-name="w" unicode="w" horiz-adv-x="488" 
d="M-35 367h56q-3 15 -3 30v162h56v-149q0 -27 7 -35t32 -8h46q23 0 27.5 5.5t4.5 25.5v144h55v-145q0 -11 1 -17t4 -9t9.5 -3.5t17.5 -0.5h38q26 0 36.5 8.5t10.5 34.5v116h55v-139v-10t-1 -10h46v-55h-205q-10 0 -23.5 4t-18.5 13q-5 -10 -15 -13.5t-19 -3.5h-218z
M185 659l35 36l35 -36l-35 -35zM244 600l35 35l36 -35l-36 -36zM122 600l35 35l36 -35l-36 -36z" />
    <glyph glyph-name="x" unicode="x" horiz-adv-x="330" 
d="M-35 367h36q26 0 51 12t45 27q-18 19 -29 36.5t-18 35.5t-11.5 38t-7.5 44h56q9 -65 51 -115q40 50 51 115h55q-3 -24 -7.5 -44t-11.5 -38t-18 -35.5t-28 -36.5q20 -14 45.5 -26.5t50.5 -12.5h38v-55h-43q-43 0 -74 18t-58 39q-26 -20 -54 -38.5t-68 -18.5h-52z" />
    <glyph glyph-name="y" unicode="y" horiz-adv-x="381" 
d="M-35 367h56q-3 15 -3 30v162h56v-149q0 -27 7 -35t32 -8h101q26 0 36.5 8.5t10.5 34.5v116h55v-159h45v-55h-45v-163q0 -29 -9 -50.5t-23.5 -36t-33 -22t-38.5 -7.5q-19 -1 -38 5t-34.5 18t-26.5 30.5t-14 43.5l54 11q2 -27 19 -40.5t37 -12.5t36 15.5t16 45.5v163h-297z
M134 559l36 35l35 -35l-35 -35z" />
    <glyph glyph-name="z" unicode="z" horiz-adv-x="354" 
d="M337 312h-372l-1 55h62q0 33 13 53.5t33 33t45 19t48 11.5q30 7 47 14.5t21 24.5h-204v50h266q0 -38 -4.5 -62.5t-17 -39.5t-35 -24t-59.5 -15q-19 -3 -36 -7t-29.5 -10.5t-20 -18t-7.5 -29.5h249z" />
  </font>
</defs>
</svg>
